# xmcd CD database file
# Copyright (C) 1993-1998 Ti Kan
#
# Track frame offsets:
# 150
# 16762
# 32587
# 44842
# 55387
# 76367
# 92250
# 107045
# 121912
# 138540
# 156525
# 172612
# 192675
#
# Disc length: 2788 seconds
#
# Revision: 1
# Processed by: cddbd v1.4b41PL1 Copyright (c) Steve Scherf et al.
# Submitted via: MediaSauce 2.0 http://www.flatcracker.com
#
DISCID=a80ae20d
DTITLE=Johnny Hoy and the Bluefish - Trolling the Hootchy
DYEAR=1900
DGENRE=
TTITLE0=Close To You
TTITLE1=Little Upsetter
TTITLE2=Cut That Out
TTITLE3=Johnny McEldoo
TTITLE4=No More Doggin'
TTITLE5=Young and Restless
TTITLE6=Must Be Love
TTITLE7=Hidden Charms
TTITLE8=Got a Little Problem
TTITLE9=Got You On My Mind
TTITLE10=Find Somebody to Love
TTITLE11=Howlin' For My Darling
TTITLE12=Tennessee Waltz
EXTD=
EXTT0=
EXTT1=
EXTT2=
EXTT3=
EXTT4=
EXTT5=
EXTT6=
EXTT7=
EXTT8=
EXTT9=
EXTT10=
EXTT11=
EXTT12=
PLAYORDER=
